<svg width="20" height="24" viewBox="0 0 20 24" fill="none" xmlns="http://www.w3.org/2000/svg">
<path d="M10.0183 5.173C6.62141 5.173 3.8462 7.94821 3.8462 11.3451C3.8462 13.1212 4.62326 14.8307 5.93315 15.9852C6.91003 16.9621 6.82122 19.049 6.79902 19.0712C6.79902 19.1823 6.82122 19.2711 6.91003 19.3599C6.97663 19.4265 7.08764 19.4709 7.17645 19.4709H12.8379C12.9489 19.4709 13.0377 19.4265 13.1043 19.3599C13.1709 19.2933 13.2153 19.1823 13.2153 19.0712C13.2153 19.049 13.1043 16.9621 14.0812 15.9852L14.1478 15.9186C15.4355 14.7419 16.1903 13.0768 16.1903 11.3451C16.1903 7.94821 13.4151 5.173 10.0183 5.173ZM13.5705 15.408C13.5483 15.4302 13.5039 15.4746 13.5039 15.4968C12.6381 16.4292 12.4826 17.9612 12.4604 18.6938H7.55388C7.53167 17.9612 7.37626 16.3626 6.44379 15.408C5.2671 14.3867 4.57885 12.8992 4.57885 11.3229C4.57885 8.32564 6.99883 5.90566 9.99606 5.90566C12.9933 5.90566 15.4133 8.32564 15.4133 11.3229C15.4133 12.8992 14.7472 14.3867 13.5705 15.408Z" fill="#231F20"/>
<path d="M9.99606 6.74931C9.79624 6.74931 9.61863 6.92692 9.61863 7.12673C9.61863 7.32655 9.79624 7.50416 9.99606 7.50416C12.2384 7.50416 14.0368 9.3247 14.0368 11.5449C14.0368 11.7447 14.2144 11.9223 14.4142 11.9223C14.614 11.9223 14.7916 11.7447 14.7916 11.5449C14.8138 8.90287 12.6603 6.74931 9.99606 6.74931ZM12.4604 19.8927H7.53168C7.02104 19.8927 6.5992 20.3145 6.5992 20.8252C6.5992 21.3358 7.02104 21.7576 7.53168 21.7576H12.4382C12.9711 21.7354 13.3929 21.3358 13.3929 20.8252C13.3929 20.3145 12.9711 19.8927 12.4604 19.8927ZM12.4604 20.9806H7.53168C7.44287 20.9806 7.35406 20.914 7.35406 20.803C7.35406 20.692 7.42067 20.6253 7.53168 20.6253H12.4382C12.527 20.6253 12.6159 20.692 12.6159 20.803C12.6159 20.914 12.5493 20.9806 12.4604 20.9806ZM11.7278 22.1351H8.26433C7.75369 22.1351 7.33186 22.5569 7.33186 23.0675C7.33186 23.5782 7.75369 24 8.26433 24H11.7278C12.2384 24 12.6603 23.5782 12.6603 23.0675C12.6603 22.5347 12.2384 22.1351 11.7278 22.1351ZM11.7278 23.2229H8.26433C8.17552 23.2229 8.08672 23.1563 8.08672 23.0453C8.08672 22.9343 8.15332 22.8677 8.26433 22.8677H11.7278C11.8166 22.8677 11.9054 22.9343 11.9054 23.0453C11.9054 23.1563 11.8166 23.2229 11.7278 23.2229ZM9.99606 3.33025C10.2181 3.33025 10.3735 3.15264 10.3735 2.95282V0.377428C10.3735 0.177613 10.1959 0 9.99606 0C9.79624 0 9.61863 0.177613 9.61863 0.377428V2.95282C9.61863 3.15264 9.79624 3.33025 9.99606 3.33025ZM16.2791 1.90934C16.1015 1.77613 15.8795 1.84274 15.7685 1.99815L14.3476 4.12951C14.2144 4.30712 14.2588 4.55134 14.4364 4.66235C14.503 4.70675 14.5696 4.72895 14.6362 4.72895C14.7694 4.72895 14.8804 4.66235 14.947 4.55134L16.3679 2.41998C16.5011 2.26457 16.4567 2.02035 16.2791 1.90934ZM5.48912 4.64015C5.55573 4.64015 5.62233 4.61795 5.68894 4.57354C5.86655 4.46253 5.91095 4.21832 5.79995 4.0407L4.42344 1.88714C4.31243 1.70953 4.06821 1.66512 3.8906 1.77613C3.71299 1.88714 3.66858 2.13136 3.77959 2.30897L5.1561 4.46253C5.2449 4.59574 5.35591 4.64015 5.48912 4.64015ZM2.80272 6.99352L0.560352 5.77243C0.382738 5.68363 0.13852 5.75023 0.0497133 5.92784C-0.0612951 6.10546 0.00530991 6.34968 0.205125 6.43848L2.44749 7.65957C2.5141 7.68178 2.5585 7.70398 2.62511 7.70398C2.75832 7.70398 2.89153 7.63737 2.95813 7.50416C3.04694 7.32655 2.98033 7.08233 2.80272 6.99352ZM19.9646 5.92784C19.8758 5.75023 19.6316 5.68363 19.454 5.77243L17.1894 6.99352C17.0118 7.08233 16.9452 7.32655 17.034 7.50416C17.1006 7.63737 17.2338 7.70398 17.367 7.70398C17.4336 7.70398 17.5002 7.68178 17.5446 7.65957L19.8092 6.43848C19.9868 6.34968 20.0534 6.10546 19.9646 5.92784Z" fill="#231F20"/>
</svg>
