<svg width="20" height="24" viewBox="0 0 20 24" fill="none" xmlns="http://www.w3.org/2000/svg">
<path d="M13.8292 15.6939C12.7111 16.812 12.8508 19.0682 12.8508 19.0682H7.18029C7.18029 19.0682 7.30009 16.812 6.20192 15.6939C4.98395 14.6157 4.20525 13.0582 4.20525 11.3211C4.20525 8.12647 6.80092 5.53079 9.9956 5.53079C13.1903 5.53079 15.7859 8.12647 15.7859 11.3211C15.7859 13.0582 15.0272 14.6157 13.8292 15.6939Z" fill="#FFD724"/>
<path d="M13.0106 20.8453C13.0106 21.1448 12.771 21.3844 12.4715 21.3844H7.5397C7.2402 21.3844 7.0006 21.1448 7.0006 20.8453C7.0006 20.5458 7.2402 20.3062 7.5397 20.3062H12.4515C12.751 20.3062 13.0106 20.5458 13.0106 20.8453ZM12.2718 23.0815C12.2718 23.381 12.0322 23.6206 11.7327 23.6206H8.27847C7.97896 23.6206 7.73936 23.381 7.73936 23.0815C7.73936 22.782 7.97896 22.5424 8.27847 22.5424H11.7327C12.0322 22.5424 12.2718 22.782 12.2718 23.0815Z" fill="#E5E5E5"/>
<path d="M14.1287 15.8935C15.4265 14.7155 16.1653 13.0582 16.1653 11.3211C16.1653 7.9268 13.3899 5.15143 9.9956 5.15143C6.60126 5.15143 3.82588 7.9268 3.82588 11.3211C3.82588 13.0982 4.60458 14.7954 5.92239 15.9534C6.90076 16.9318 6.80092 19.0083 6.80092 19.0283C6.80092 19.1281 6.84086 19.228 6.90076 19.3078C6.98062 19.3877 7.08046 19.4276 7.18029 19.4276H12.8309C12.9307 19.4276 13.0305 19.3877 13.1104 19.3078C13.1903 19.228 13.2102 19.1281 13.2102 19.0283C13.2102 19.0083 13.1104 16.9318 14.0888 15.9534C14.1087 15.9335 14.1287 15.9135 14.1287 15.8935ZM13.5696 15.3944C13.5297 15.4143 13.5097 15.4543 13.4898 15.4942C12.6112 16.4326 12.4715 17.9701 12.4515 18.6889H7.55966C7.53969 17.9501 7.37996 16.3528 6.44152 15.4143C5.26349 14.3761 4.58462 12.8985 4.58462 11.3411C4.58462 8.3461 7.02056 5.93013 9.9956 5.93013C12.9906 5.93013 15.4066 8.36607 15.4066 11.3411C15.4066 12.8785 14.7477 14.3761 13.5696 15.3944Z" fill="#210B20"/>
<path d="M9.9956 6.74875C9.79593 6.74875 9.61623 6.90849 9.61623 7.12812C9.61623 7.32779 9.77597 7.50749 9.9956 7.50749C12.2319 7.50749 14.0488 9.32446 14.0488 11.5607C14.0488 11.7604 14.2086 11.9401 14.4282 11.9401C14.6279 11.9401 14.8076 11.7804 14.8076 11.5607C14.8076 8.90516 12.6512 6.74875 9.9956 6.74875ZM13.3899 20.8453C13.3899 20.3261 12.9706 19.9268 12.4715 19.9268H7.53969C7.02056 19.9268 6.62122 20.3461 6.62122 20.8453C6.62122 21.3644 7.04053 21.7637 7.53969 21.7637H12.4515C12.9706 21.7637 13.3899 21.3644 13.3899 20.8453ZM12.4515 21.005H7.53969C7.43986 21.005 7.37996 20.9251 7.37996 20.8453C7.37996 20.7454 7.45983 20.6855 7.53969 20.6855H12.4515C12.5513 20.6855 12.6112 20.7654 12.6112 20.8453C12.6312 20.9451 12.5513 21.005 12.4515 21.005ZM11.7327 22.1631H8.27846C7.75933 22.1631 7.35999 22.5824 7.35999 23.0815C7.35999 23.6007 7.77929 24 8.27846 24H11.7327C12.2518 24 12.6512 23.5807 12.6512 23.0815C12.6512 22.5824 12.2319 22.1631 11.7327 22.1631ZM11.7327 23.2413H8.27846C8.17863 23.2413 8.11873 23.1614 8.11873 23.0815C8.11873 22.9817 8.1986 22.9218 8.27846 22.9218H11.7327C11.8325 22.9218 11.8924 23.0017 11.8924 23.0815C11.8924 23.1814 11.8325 23.2413 11.7327 23.2413ZM10.375 2.93511V0.379368C10.375 0.1797 10.2152 0 9.9956 0C9.79593 0 9.61623 0.159734 9.61623 0.379368V2.95507C9.61623 3.15474 9.77597 3.33444 9.9956 3.33444C10.2152 3.31448 10.375 3.15474 10.375 2.93511ZM16.2851 1.89684C16.1054 1.77704 15.8858 1.83694 15.766 1.99667L14.3483 4.13311C14.2285 4.31281 14.2884 4.53245 14.4482 4.65225C14.5081 4.69218 14.5879 4.71215 14.6478 4.71215C14.7676 4.71215 14.8874 4.65225 14.9673 4.55241L16.385 2.41597C16.5048 2.25624 16.4449 2.01664 16.2851 1.89684ZM5.48312 4.63228C5.54302 4.63228 5.62289 4.61231 5.68279 4.57238C5.86249 4.45258 5.90242 4.23294 5.80259 4.05324L4.42489 1.89684C4.30509 1.71714 4.08545 1.6772 3.90575 1.77704C3.72605 1.89684 3.68612 2.11647 3.78595 2.29617L5.16365 4.45258C5.24352 4.57238 5.36332 4.63228 5.48312 4.63228ZM0.19194 6.42928L2.44818 7.64725C2.50808 7.68719 2.56798 7.68719 2.62788 7.68719C2.76765 7.68719 2.88745 7.60732 2.96731 7.48752C3.06715 7.30782 3.00725 7.06822 2.80758 6.96839L0.551341 5.75042C0.371641 5.65058 0.13204 5.71048 0.0322068 5.91015C-0.0476601 6.10982 0.01224 6.32945 0.19194 6.42928ZM17.3633 7.70715C17.4232 7.70715 17.4831 7.68719 17.543 7.66722L19.7993 6.44925C19.979 6.34942 20.0588 6.12978 19.959 5.93012C19.8592 5.75042 19.6395 5.67055 19.4399 5.77038L17.1836 6.98835C17.0039 7.08819 16.9241 7.30782 17.0239 7.50749C17.0838 7.62729 17.2236 7.70715 17.3633 7.70715Z" fill="#210B20"/>
</svg>
